<svg width="607" height="175" viewBox="0 0 607 175" fill="none" xmlns="http://www.w3.org/2000/svg">
<rect x="335.9" y="14.4081" width="68.4949" height="71.9274" fill="#FF133E"/>
<path d="M25.7247 79.8435C22.1549 79.8435 18.8366 79.1899 15.7697 77.8826C12.753 76.5754 10.1386 74.7654 7.92637 72.4527C5.76443 70.0896 4.18068 67.3495 3.17513 64.2323L11.6972 60.5369C13.0547 63.7546 15.0155 66.2936 17.5797 68.1539C20.1438 69.9639 23.0348 70.8689 26.2526 70.8689C28.0626 70.8689 29.6212 70.5924 30.9284 70.0393C32.2859 69.436 33.3166 68.6316 34.0205 67.626C34.7746 66.6205 35.1517 65.4138 35.1517 64.006C35.1517 62.3469 34.6489 60.9894 33.6434 59.9335C32.6881 58.8274 31.2301 57.9727 29.2692 57.3694L18.4847 53.9002C14.1105 52.5427 10.8173 50.5065 8.60512 47.7915C6.3929 45.0765 5.28679 41.8838 5.28679 38.2136C5.28679 34.9958 6.06609 32.1551 7.6247 29.6915C9.23359 27.2279 11.4458 25.3174 14.2614 23.9599C17.1272 22.5521 20.3952 21.8482 24.0655 21.8482C27.4341 21.8482 30.5262 22.4515 33.3417 23.6582C36.1573 24.8146 38.5706 26.4486 40.5817 28.5603C42.6431 30.6217 44.1766 33.0601 45.1821 35.8757L36.7355 39.6465C35.6294 36.8309 33.9702 34.669 31.758 33.1607C29.5458 31.6021 26.9816 30.8228 24.0655 30.8228C22.3561 30.8228 20.8477 31.1244 19.5405 31.7278C18.2333 32.2808 17.2026 33.0853 16.4484 34.1411C15.7445 35.1466 15.3926 36.3533 15.3926 37.7611C15.3926 39.3197 15.8954 40.7023 16.9009 41.909C17.9065 43.0654 19.4399 43.9704 21.5013 44.624L31.8334 47.8669C36.3081 49.3249 39.6516 51.336 41.8638 53.9002C44.1263 56.4644 45.2575 59.6319 45.2575 63.4027C45.2575 66.6205 44.4279 69.4611 42.7688 71.9247C41.1096 74.3883 38.822 76.324 35.9059 77.7318C32.9898 79.1396 29.596 79.8435 25.7247 79.8435ZM65.739 79.8435C62.8732 79.8435 60.3844 79.3658 58.2728 78.4106C56.1611 77.4553 54.5271 76.0978 53.3707 74.3381C52.2143 72.5281 51.6361 70.4416 51.6361 68.0785C51.6361 65.816 52.1389 63.8049 53.1444 62.0452C54.15 60.2352 55.7086 58.7269 57.8203 57.5202C59.9319 56.3135 62.5966 55.4588 65.8144 54.956L79.2385 52.769V60.3106L67.6998 62.2714C65.739 62.6234 64.2809 63.2518 63.3257 64.1568C62.3704 65.0618 61.8927 66.2434 61.8927 67.7014C61.8927 69.1092 62.4207 70.2404 63.4765 71.0952C64.5826 71.8996 65.9401 72.3018 67.549 72.3018C69.6104 72.3018 71.4204 71.8745 72.979 71.0197C74.5879 70.1147 75.8197 68.8829 76.6744 67.3243C77.5794 65.7657 78.0319 64.0563 78.0319 62.196V51.6377C78.0319 49.878 77.328 48.4199 75.9202 47.2636C74.5627 46.0569 72.7527 45.4536 70.4902 45.4536C68.3786 45.4536 66.4932 46.0318 64.834 47.1881C63.2251 48.2942 62.0436 49.7774 61.2894 51.6377L53.2199 47.7161C54.0243 45.5541 55.2812 43.6938 56.9907 42.1352C58.7504 40.5263 60.8118 39.2694 63.1748 38.3644C65.5379 37.4594 68.102 37.0069 70.8673 37.0069C74.2359 37.0069 77.2023 37.6354 79.7665 38.8923C82.3306 40.099 84.3166 41.8084 85.7244 44.0206C87.1824 46.1826 87.9114 48.7216 87.9114 51.6377V78.9385H78.5598V71.9247L80.6714 71.7739C79.6156 73.5336 78.3587 75.0168 76.9006 76.2235C75.4426 77.3799 73.7834 78.2849 71.9231 78.9385C70.0629 79.5418 68.0015 79.8435 65.739 79.8435ZM97.0427 78.9385V37.9119H106.319V45.9815L105.565 44.5486C106.52 42.085 108.079 40.2247 110.241 38.9677C112.453 37.6605 115.017 37.0069 117.933 37.0069C120.95 37.0069 123.614 37.6605 125.927 38.9677C128.29 40.275 130.125 42.1101 131.433 44.4731C132.74 46.7859 133.393 49.4758 133.393 52.5427V78.9385H123.514V54.8806C123.514 53.0706 123.162 51.512 122.458 50.2048C121.754 48.8976 120.774 47.892 119.517 47.1881C118.31 46.434 116.877 46.0569 115.218 46.0569C113.609 46.0569 112.176 46.434 110.919 47.1881C109.662 47.892 108.682 48.8976 107.978 50.2048C107.274 51.512 106.922 53.0706 106.922 54.8806V78.9385H97.0427ZM160.451 79.391C155.825 79.391 152.23 78.134 149.666 75.6202C147.152 73.056 145.895 69.4611 145.895 64.8356V46.7356H138.806V37.9119H139.561C141.572 37.9119 143.13 37.384 144.236 36.3282C145.342 35.2723 145.895 33.7389 145.895 31.7278V28.5603H155.775V37.9119H165.202V46.7356H155.775V64.3077C155.775 65.6652 156.001 66.8216 156.454 67.7768C156.957 68.7321 157.711 69.4611 158.716 69.9639C159.772 70.4667 161.104 70.7181 162.713 70.7181C163.065 70.7181 163.468 70.6929 163.92 70.6427C164.423 70.5924 164.9 70.5421 165.353 70.4918V78.9385C164.649 79.039 163.845 79.1396 162.94 79.2401C162.035 79.3407 161.205 79.391 160.451 79.391ZM172.901 78.9385V37.9119H182.781V78.9385H172.901ZM172.901 33.3115V22.7532H182.781V33.3115H172.901ZM204.346 79.8435C201.48 79.8435 198.992 79.3658 196.88 78.4106C194.768 77.4553 193.134 76.0978 191.978 74.3381C190.822 72.5281 190.243 70.4416 190.243 68.0785C190.243 65.816 190.746 63.8049 191.752 62.0452C192.757 60.2352 194.316 58.7269 196.427 57.5202C198.539 56.3135 201.204 55.4588 204.422 54.956L217.846 52.769V60.3106L206.307 62.2714C204.346 62.6234 202.888 63.2518 201.933 64.1568C200.978 65.0618 200.5 66.2434 200.5 67.7014C200.5 69.1092 201.028 70.2404 202.084 71.0952C203.19 71.8996 204.547 72.3018 206.156 72.3018C208.218 72.3018 210.028 71.8745 211.586 71.0197C213.195 70.1147 214.427 68.8829 215.282 67.3243C216.187 65.7657 216.639 64.0563 216.639 62.196V51.6377C216.639 49.878 215.935 48.4199 214.527 47.2636C213.17 46.0569 211.36 45.4536 209.097 45.4536C206.986 45.4536 205.1 46.0318 203.441 47.1881C201.832 48.2942 200.651 49.7774 199.897 51.6377L191.827 47.7161C192.632 45.5541 193.888 43.6938 195.598 42.1352C197.358 40.5263 199.419 39.2694 201.782 38.3644C204.145 37.4594 206.709 37.0069 209.475 37.0069C212.843 37.0069 215.81 37.6354 218.374 38.8923C220.938 40.099 222.924 41.8084 224.332 44.0206C225.79 46.1826 226.519 48.7216 226.519 51.6377V78.9385H217.167V71.9247L219.279 71.7739C218.223 73.5336 216.966 75.0168 215.508 76.2235C214.05 77.3799 212.391 78.2849 210.53 78.9385C208.67 79.5418 206.609 79.8435 204.346 79.8435ZM255.56 95.5301C252.493 95.5301 249.652 95.0273 247.038 94.0218C244.423 93.0162 242.161 91.6084 240.25 89.7984C238.39 88.0387 237.033 85.9522 236.178 83.5389L245.379 80.0697C245.982 81.9803 247.164 83.5137 248.923 84.6701C250.733 85.8768 252.945 86.4801 255.56 86.4801C257.571 86.4801 259.331 86.103 260.839 85.3489C262.398 84.5947 263.604 83.4886 264.459 82.0306C265.314 80.6228 265.741 78.9133 265.741 76.9022V67.5506L267.627 69.8131C266.219 72.2767 264.333 74.137 261.97 75.3939C259.607 76.6508 256.917 77.2793 253.901 77.2793C250.08 77.2793 246.661 76.3995 243.644 74.6397C240.627 72.88 238.264 70.4667 236.555 67.3998C234.846 64.3328 233.991 60.8888 233.991 57.0677C233.991 53.1963 234.846 49.7523 236.555 46.7356C238.264 43.719 240.602 41.3559 243.569 39.6465C246.535 37.8868 249.904 37.0069 253.674 37.0069C256.741 37.0069 259.431 37.6605 261.744 38.9677C264.107 40.2247 266.068 42.0598 267.627 44.4731L266.269 46.9619V37.9119H275.621V76.9022C275.621 80.4719 274.741 83.6646 272.981 86.4801C271.272 89.2957 268.909 91.5079 265.892 93.1168C262.926 94.7257 259.482 95.5301 255.56 95.5301ZM255.107 68.1539C257.219 68.1539 259.054 67.7014 260.613 66.7964C262.222 65.8411 263.479 64.5339 264.384 62.8748C265.289 61.2156 265.741 59.3051 265.741 57.1431C265.741 55.0315 265.263 53.146 264.308 51.4869C263.403 49.7774 262.146 48.4451 260.537 47.4898C258.979 46.5345 257.169 46.0569 255.107 46.0569C253.046 46.0569 251.186 46.5345 249.527 47.4898C247.867 48.4451 246.56 49.7774 245.605 51.4869C244.7 53.146 244.247 55.0315 244.247 57.1431C244.247 59.2548 244.7 61.1402 245.605 62.7994C246.56 64.4585 247.842 65.7657 249.451 66.721C251.11 67.6763 252.996 68.1539 255.107 68.1539ZM304.908 79.8435C300.886 79.8435 297.216 78.9133 293.897 77.0531C290.629 75.1928 288.015 72.6538 286.054 69.436C284.144 66.2182 283.188 62.548 283.188 58.4252C283.188 54.3024 284.144 50.6322 286.054 47.4144C288.015 44.1966 290.629 41.6576 293.897 39.7973C297.165 37.937 300.836 37.0069 304.908 37.0069C308.93 37.0069 312.576 37.937 315.844 39.7973C319.112 41.6576 321.701 44.1966 323.611 47.4144C325.572 50.5819 326.553 54.2521 326.553 58.4252C326.553 62.548 325.572 66.2182 323.611 69.436C321.651 72.6538 319.036 75.1928 315.768 77.0531C312.5 78.9133 308.88 79.8435 304.908 79.8435ZM304.908 70.7935C307.12 70.7935 309.056 70.2656 310.715 69.2098C312.425 68.1539 313.757 66.6959 314.712 64.8356C315.718 62.925 316.221 60.7882 316.221 58.4252C316.221 56.0119 315.718 53.9002 314.712 52.0902C313.757 50.2299 312.425 48.7719 310.715 47.7161C309.056 46.6099 307.12 46.0569 304.908 46.0569C302.646 46.0569 300.66 46.6099 298.95 47.7161C297.241 48.7719 295.883 50.2299 294.878 52.0902C293.923 53.9002 293.445 56.0119 293.445 58.4252C293.445 60.7882 293.923 62.925 294.878 64.8356C295.883 66.6959 297.241 68.1539 298.95 69.2098C300.66 70.2656 302.646 70.7935 304.908 70.7935ZM367.75 79.8435C364.18 79.8435 360.862 79.1899 357.795 77.8826C354.779 76.5754 352.164 74.7654 349.952 72.4527C347.79 70.0896 346.206 67.3495 345.201 64.2323L353.723 60.5369C355.08 63.7546 357.041 66.2936 359.605 68.1539C362.169 69.9639 365.06 70.8689 368.278 70.8689C370.088 70.8689 371.647 70.5924 372.954 70.0393C374.311 69.436 375.342 68.6316 376.046 67.626C376.8 66.6205 377.177 65.4138 377.177 64.006C377.177 62.3469 376.674 60.9894 375.669 59.9335C374.714 58.8274 373.256 57.9727 371.295 57.3694L360.51 53.9002C356.136 52.5427 352.843 50.5065 350.631 47.7915C348.418 45.0765 347.312 41.8838 347.312 38.2136C347.312 34.9958 348.092 32.1551 349.65 29.6915C351.259 27.2279 353.471 25.3174 356.287 23.9599C359.153 22.5521 362.421 21.8482 366.091 21.8482C369.46 21.8482 372.552 22.4515 375.367 23.6582C378.183 24.8146 380.596 26.4486 382.607 28.5603C384.669 30.6217 386.202 33.0601 387.208 35.8757L378.761 39.6465C377.655 36.8309 375.996 34.669 373.783 33.1607C371.571 31.6021 369.007 30.8228 366.091 30.8228C364.382 30.8228 362.873 31.1244 361.566 31.7278C360.259 32.2808 359.228 33.0853 358.474 34.1411C357.77 35.1466 357.418 36.3533 357.418 37.7611C357.418 39.3197 357.921 40.7023 358.926 41.909C359.932 43.0654 361.465 43.9704 363.527 44.624L373.859 47.8669C378.334 49.3249 381.677 51.336 383.889 53.9002C386.152 56.4644 387.283 59.6319 387.283 63.4027C387.283 66.6205 386.453 69.4611 384.794 71.9247C383.135 74.3883 380.847 76.324 377.931 77.7318C375.015 79.1396 371.622 79.8435 367.75 79.8435ZM407.764 79.8435C404.899 79.8435 402.41 79.3658 400.298 78.4106C398.187 77.4553 396.553 76.0978 395.396 74.3381C394.24 72.5281 393.662 70.4416 393.662 68.0785C393.662 65.816 394.164 63.8049 395.17 62.0452C396.175 60.2352 397.734 58.7269 399.846 57.5202C401.957 56.3135 404.622 55.4588 407.84 54.956L421.264 52.769V60.3106L409.725 62.2714C407.764 62.6234 406.306 63.2518 405.351 64.1568C404.396 65.0618 403.918 66.2434 403.918 67.7014C403.918 69.1092 404.446 70.2404 405.502 71.0952C406.608 71.8996 407.966 72.3018 409.574 72.3018C411.636 72.3018 413.446 71.8745 415.004 71.0197C416.613 70.1147 417.845 68.8829 418.7 67.3243C419.605 65.7657 420.057 64.0563 420.057 62.196V51.6377C420.057 49.878 419.353 48.4199 417.946 47.2636C416.588 46.0569 414.778 45.4536 412.516 45.4536C410.404 45.4536 408.519 46.0318 406.859 47.1881C405.251 48.2942 404.069 49.7774 403.315 51.6377L395.245 47.7161C396.05 45.5541 397.307 43.6938 399.016 42.1352C400.776 40.5263 402.837 39.2694 405.2 38.3644C407.563 37.4594 410.128 37.0069 412.893 37.0069C416.261 37.0069 419.228 37.6354 421.792 38.8923C424.356 40.099 426.342 41.8084 427.75 44.0206C429.208 46.1826 429.937 48.7216 429.937 51.6377V78.9385H420.585V71.9247L422.697 71.7739C421.641 73.5336 420.384 75.0168 418.926 76.2235C417.468 77.3799 415.809 78.2849 413.949 78.9385C412.088 79.5418 410.027 79.8435 407.764 79.8435ZM439.068 78.9385V21.8482H448.948V78.9385H439.068ZM470.513 79.8435C467.648 79.8435 465.159 79.3658 463.047 78.4106C460.935 77.4553 459.301 76.0978 458.145 74.3381C456.989 72.5281 456.41 70.4416 456.41 68.0785C456.41 65.816 456.913 63.8049 457.919 62.0452C458.924 60.2352 460.483 58.7269 462.595 57.5202C464.706 56.3135 467.371 55.4588 470.589 54.956L484.013 52.769V60.3106L472.474 62.2714C470.513 62.6234 469.055 63.2518 468.1 64.1568C467.145 65.0618 466.667 66.2434 466.667 67.7014C466.667 69.1092 467.195 70.2404 468.251 71.0952C469.357 71.8996 470.714 72.3018 472.323 72.3018C474.385 72.3018 476.195 71.8745 477.753 71.0197C479.362 70.1147 480.594 68.8829 481.449 67.3243C482.354 65.7657 482.806 64.0563 482.806 62.196V51.6377C482.806 49.878 482.102 48.4199 480.695 47.2636C479.337 46.0569 477.527 45.4536 475.265 45.4536C473.153 45.4536 471.267 46.0318 469.608 47.1881C467.999 48.2942 466.818 49.7774 466.064 51.6377L457.994 47.7161C458.799 45.5541 460.056 43.6938 461.765 42.1352C463.525 40.5263 465.586 39.2694 467.949 38.3644C470.312 37.4594 472.876 37.0069 475.642 37.0069C479.01 37.0069 481.977 37.6354 484.541 38.8923C487.105 40.099 489.091 41.8084 490.499 44.0206C491.957 46.1826 492.686 48.7216 492.686 51.6377V78.9385H483.334V71.9247L485.446 71.7739C484.39 73.5336 483.133 75.0168 481.675 76.2235C480.217 77.3799 478.558 78.2849 476.697 78.9385C474.837 79.5418 472.776 79.8435 470.513 79.8435ZM498.273 78.9385V70.9443L522.104 43.3419L523.612 46.7356H499.328V37.9119H532.361V45.9815L508.982 73.5839L507.473 70.1902H532.512V78.9385H498.273ZM550.57 79.8435C547.704 79.8435 545.215 79.3658 543.103 78.4106C540.992 77.4553 539.358 76.0978 538.201 74.3381C537.045 72.5281 536.467 70.4416 536.467 68.0785C536.467 65.816 536.97 63.8049 537.975 62.0452C538.981 60.2352 540.539 58.7269 542.651 57.5202C544.763 56.3135 547.427 55.4588 550.645 54.956L564.069 52.769V60.3106L552.531 62.2714C550.57 62.6234 549.112 63.2518 548.156 64.1568C547.201 65.0618 546.723 66.2434 546.723 67.7014C546.723 69.1092 547.251 70.2404 548.307 71.0952C549.413 71.8996 550.771 72.3018 552.38 72.3018C554.441 72.3018 556.251 71.8745 557.81 71.0197C559.419 70.1147 560.65 68.8829 561.505 67.3243C562.41 65.7657 562.863 64.0563 562.863 62.196V51.6377C562.863 49.878 562.159 48.4199 560.751 47.2636C559.393 46.0569 557.583 45.4536 555.321 45.4536C553.209 45.4536 551.324 46.0318 549.665 47.1881C548.056 48.2942 546.874 49.7774 546.12 51.6377L538.051 47.7161C538.855 45.5541 540.112 43.6938 541.821 42.1352C543.581 40.5263 545.642 39.2694 548.006 38.3644C550.369 37.4594 552.933 37.0069 555.698 37.0069C559.067 37.0069 562.033 37.6354 564.597 38.8923C567.161 40.099 569.147 41.8084 570.555 44.0206C572.013 46.1826 572.742 48.7216 572.742 51.6377V78.9385H563.39V71.9247L565.502 71.7739C564.446 73.5336 563.189 75.0168 561.731 76.2235C560.273 77.3799 558.614 78.2849 556.754 78.9385C554.894 79.5418 552.832 79.8435 550.57 79.8435ZM581.873 78.9385V37.9119H591.15V47.0373L590.395 45.6798C591.351 42.6129 592.834 40.4761 594.845 39.2694C596.906 38.0627 599.37 37.4594 602.236 37.4594H604.649V46.2077H601.105C598.289 46.2077 596.027 47.0876 594.317 48.8473C592.608 50.5567 591.753 52.9701 591.753 56.0873V78.9385H581.873Z" fill="white"/>
<path d="M10.1889 157.391V122.624H2.1193V116.967H10.1889V113.347C10.1889 110.532 10.8173 108.169 12.0743 106.258C13.3312 104.297 14.9904 102.814 17.0518 101.809C19.1131 100.803 21.3254 100.3 23.6884 100.3C24.1912 100.3 24.7694 100.351 25.423 100.451C26.0766 100.501 26.6045 100.577 27.0067 100.677V105.806C26.6548 105.705 26.1772 105.655 25.5738 105.655C24.9705 105.605 24.5431 105.579 24.2917 105.579C21.8784 105.579 19.8673 106.158 18.2584 107.314C16.6495 108.47 15.8451 110.481 15.8451 113.347V116.967H25.7247V122.624H15.8451V157.391H10.1889ZM34.9113 157.391V116.967H40.5676V123.604L39.8134 122.624C40.7687 120.713 42.2016 119.205 44.1121 118.099C46.073 116.992 48.436 116.439 51.2013 116.439H53.7654V122.096H50.2209C47.3048 122.096 44.9669 123.001 43.2071 124.811C41.4474 126.621 40.5676 129.185 40.5676 132.503V157.391H34.9113ZM79.3234 158.296C75.5023 158.296 72.0331 157.391 68.9159 155.581C65.7987 153.72 63.3099 151.206 61.4497 148.039C59.6397 144.821 58.7347 141.176 58.7347 137.103C58.7347 133.081 59.6397 129.486 61.4497 126.319C63.2597 123.151 65.6981 120.663 68.7651 118.853C71.8823 116.992 75.4017 116.062 79.3234 116.062C83.245 116.062 86.7393 116.967 89.8063 118.777C92.9235 120.587 95.362 123.076 97.1217 126.243C98.9317 129.411 99.8367 133.031 99.8367 137.103C99.8367 141.226 98.9065 144.897 97.0463 148.114C95.186 151.282 92.6972 153.771 89.58 155.581C86.5131 157.391 83.0942 158.296 79.3234 158.296ZM79.3234 152.639C82.0384 152.639 84.4768 151.961 86.6388 150.603C88.851 149.246 90.5856 147.385 91.8425 145.022C93.1497 142.659 93.8033 140.02 93.8033 137.103C93.8033 134.187 93.1497 131.573 91.8425 129.26C90.5856 126.947 88.851 125.112 86.6388 123.755C84.4768 122.397 82.0384 121.719 79.3234 121.719C76.6084 121.719 74.1448 122.397 71.9326 123.755C69.7706 125.112 68.036 126.947 66.7288 129.26C65.4216 131.573 64.768 134.187 64.768 137.103C64.768 140.02 65.4216 142.659 66.7288 145.022C68.036 147.385 69.7706 149.246 71.9326 150.603C74.1448 151.961 76.6084 152.639 79.3234 152.639ZM109.812 157.391V116.967H115.468V124.811L114.186 124.509C115.192 121.894 116.826 119.833 119.088 118.325C121.401 116.816 124.066 116.062 127.083 116.062C129.948 116.062 132.513 116.716 134.775 118.023C137.088 119.33 138.898 121.14 140.205 123.453C141.563 125.716 142.241 128.28 142.241 131.146V157.391H136.585V133.333C136.585 130.869 136.133 128.783 135.228 127.073C134.373 125.364 133.141 124.056 131.532 123.151C129.974 122.196 128.164 121.719 126.102 121.719C124.041 121.719 122.206 122.196 120.597 123.151C118.988 124.056 117.731 125.389 116.826 127.148C115.921 128.858 115.468 130.919 115.468 133.333V157.391H109.812ZM168.505 157.843C164.885 157.843 162.094 156.787 160.133 154.676C158.172 152.564 157.192 149.547 157.192 145.626V122.624H149.726V116.967H151.611C153.321 116.967 154.678 116.414 155.684 115.308C156.689 114.152 157.192 112.719 157.192 111.009V107.616H162.848V116.967H171.747V122.624H162.848V145.626C162.848 146.983 163.049 148.19 163.452 149.246C163.854 150.251 164.533 151.056 165.488 151.659C166.493 152.262 167.826 152.564 169.485 152.564C169.887 152.564 170.365 152.539 170.918 152.488C171.471 152.438 171.949 152.388 172.351 152.338V157.391C171.747 157.541 171.069 157.642 170.315 157.692C169.56 157.793 168.957 157.843 168.505 157.843ZM182.057 139.818V134.539H208.452V139.818H182.057ZM238.245 158.296C234.475 158.296 231.056 157.391 227.989 155.581C224.972 153.72 222.584 151.181 220.824 147.963C219.064 144.746 218.185 141.101 218.185 137.028C218.185 132.956 219.039 129.361 220.749 126.243C222.458 123.076 224.771 120.587 227.687 118.777C230.653 116.967 233.972 116.062 237.642 116.062C240.558 116.062 243.147 116.615 245.41 117.721C247.723 118.777 249.683 120.235 251.292 122.096C252.901 123.906 254.133 125.967 254.988 128.28C255.843 130.542 256.27 132.88 256.27 135.293C256.27 135.796 256.245 136.374 256.194 137.028C256.144 137.631 256.069 138.26 255.968 138.913H221.805V133.634H252.725L250.01 135.897C250.463 133.132 250.136 130.668 249.03 128.506C247.974 126.294 246.441 124.559 244.429 123.302C242.418 121.995 240.156 121.341 237.642 121.341C235.128 121.341 232.79 121.995 230.628 123.302C228.517 124.609 226.857 126.445 225.651 128.808C224.444 131.12 223.966 133.886 224.218 137.103C223.966 140.321 224.469 143.137 225.726 145.55C227.033 147.913 228.793 149.748 231.005 151.056C233.268 152.363 235.681 153.016 238.245 153.016C241.212 153.016 243.7 152.312 245.712 150.905C247.723 149.497 249.357 147.737 250.614 145.626L255.44 148.19C254.636 150 253.404 151.684 251.745 153.243C250.086 154.751 248.1 155.983 245.787 156.938C243.524 157.843 241.011 158.296 238.245 158.296ZM266.243 157.391V116.967H271.899V124.811L270.617 124.509C271.622 121.894 273.256 119.833 275.519 118.325C277.832 116.816 280.496 116.062 283.513 116.062C286.379 116.062 288.943 116.716 291.205 118.023C293.518 119.33 295.328 121.14 296.635 123.453C297.993 125.716 298.672 128.28 298.672 131.146V157.391H293.015V133.333C293.015 130.869 292.563 128.783 291.658 127.073C290.803 125.364 289.571 124.056 287.962 123.151C286.404 122.196 284.594 121.719 282.532 121.719C280.471 121.719 278.636 122.196 277.027 123.151C275.418 124.056 274.161 125.389 273.256 127.148C272.351 128.858 271.899 130.919 271.899 133.333V157.391H266.243ZM327.725 158.296C323.954 158.296 320.561 157.391 317.544 155.581C314.527 153.72 312.139 151.206 310.379 148.039C308.67 144.821 307.815 141.201 307.815 137.179C307.815 133.106 308.67 129.486 310.379 126.319C312.139 123.151 314.502 120.663 317.469 118.853C320.485 116.992 323.904 116.062 327.725 116.062C331.194 116.062 334.286 116.816 337.001 118.325C339.716 119.833 341.853 121.869 343.412 124.434L342.507 126.017V100.3H348.163V157.391H342.507V148.341L343.412 149.17C342.004 152.086 339.892 154.349 337.077 155.958C334.312 157.516 331.194 158.296 327.725 158.296ZM328.027 152.639C330.742 152.639 333.18 151.961 335.342 150.603C337.554 149.246 339.289 147.41 340.546 145.098C341.853 142.735 342.507 140.095 342.507 137.179C342.507 134.263 341.853 131.648 340.546 129.336C339.289 126.973 337.554 125.112 335.342 123.755C333.18 122.397 330.742 121.719 328.027 121.719C325.362 121.719 322.949 122.397 320.787 123.755C318.625 125.112 316.916 126.947 315.659 129.26C314.452 131.573 313.849 134.213 313.849 137.179C313.849 140.095 314.452 142.735 315.659 145.098C316.916 147.41 318.6 149.246 320.711 150.603C322.873 151.961 325.312 152.639 328.027 152.639ZM390.842 158.296C387.071 158.296 383.678 157.391 380.661 155.581C377.644 153.72 375.256 151.206 373.497 148.039C371.787 144.821 370.932 141.201 370.932 137.179C370.932 133.106 371.787 129.486 373.497 126.319C375.256 123.151 377.619 120.663 380.586 118.853C383.602 116.992 387.021 116.062 390.842 116.062C394.311 116.062 397.404 116.816 400.119 118.325C402.834 119.833 404.97 121.869 406.529 124.434L405.624 126.017V100.3H411.28V157.391H405.624V148.341L406.529 149.17C405.121 152.086 403.01 154.349 400.194 155.958C397.429 157.516 394.311 158.296 390.842 158.296ZM391.144 152.639C393.859 152.639 396.297 151.961 398.459 150.603C400.672 149.246 402.406 147.41 403.663 145.098C404.97 142.735 405.624 140.095 405.624 137.179C405.624 134.263 404.97 131.648 403.663 129.336C402.406 126.973 400.672 125.112 398.459 123.755C396.297 122.397 393.859 121.719 391.144 121.719C388.479 121.719 386.066 122.397 383.904 123.755C381.742 125.112 380.033 126.947 378.776 129.26C377.569 131.573 376.966 134.213 376.966 137.179C376.966 140.095 377.569 142.735 378.776 145.098C380.033 147.41 381.717 149.246 383.829 150.603C385.991 151.961 388.429 152.639 391.144 152.639ZM441.295 158.296C437.525 158.296 434.106 157.391 431.039 155.581C428.022 153.72 425.634 151.181 423.874 147.963C422.114 144.746 421.235 141.101 421.235 137.028C421.235 132.956 422.089 129.361 423.799 126.243C425.508 123.076 427.821 120.587 430.737 118.777C433.703 116.967 437.022 116.062 440.692 116.062C443.608 116.062 446.197 116.615 448.46 117.721C450.773 118.777 452.734 120.235 454.342 122.096C455.951 123.906 457.183 125.967 458.038 128.28C458.893 130.542 459.32 132.88 459.32 135.293C459.32 135.796 459.295 136.374 459.244 137.028C459.194 137.631 459.119 138.26 459.018 138.913H424.855V133.634H455.775L453.06 135.897C453.513 133.132 453.186 130.668 452.08 128.506C451.024 126.294 449.491 124.559 447.48 123.302C445.468 121.995 443.206 121.341 440.692 121.341C438.178 121.341 435.84 121.995 433.678 123.302C431.567 124.609 429.907 126.445 428.701 128.808C427.494 131.12 427.017 133.886 427.268 137.103C427.017 140.321 427.519 143.137 428.776 145.55C430.083 147.913 431.843 149.748 434.055 151.056C436.318 152.363 438.731 153.016 441.295 153.016C444.262 153.016 446.75 152.312 448.762 150.905C450.773 149.497 452.407 147.737 453.664 145.626L458.49 148.19C457.686 150 456.454 151.684 454.795 153.243C453.136 154.751 451.15 155.983 448.837 156.938C446.575 157.843 444.061 158.296 441.295 158.296ZM479.341 157.391L463.579 116.967H469.914L483.187 152.413H481.151L494.499 116.967H500.91L484.997 157.391H479.341ZM506.458 157.391V149.095H512.491V157.391H506.458Z" fill="white"/>
</svg>
